<svg width="1192" height="447" xmlns="http://www.w3.org/2000/svg"><g><path d="M-58.45950968563557,-106.42708456143737L-128.0974202323705,327.94716727919877L-62.098148837685585,49.228603430092335Z" fill="#cc8435" stroke="#cc8435"></path><path d="M-58.45950968563557,-106.42708456143737L-62.098148837685585,49.228603430092335L41.84117244556546,24.54855247400701Z" fill="#bd550f" stroke="#bd550f"></path><path d="M-58.45950968563557,-106.42708456143737L41.84117244556546,24.54855247400701L128.42892064712942,-90.89137810282409Z" fill="#ba450a" stroke="#ba450a"></path><path d="M-58.45950968563557,-106.42708456143737L128.42892064712942,-90.89137810282409L575.7209807820618,-127.6804146822542Z" fill="#c55425" stroke="#c55425"></path><path d="M128.42892064712942,-90.89137810282409L41.84117244556546,24.54855247400701L266.9924745708704,109.7504944447428Z" fill="#df852e" stroke="#df852e"></path><path d="M128.42892064712942,-90.89137810282409L266.9924745708704,109.7504944447428L267.16081970371306,-72.39653497003019Z" fill="#df7f33" stroke="#df7f33"></path><path d="M128.42892064712942,-90.89137810282409L267.16081970371306,-72.39653497003019L575.7209807820618,-127.6804146822542Z" fill="#cc6545" stroke="#cc6545"></path><path d="M267.16081970371306,-72.39653497003019L266.9924745708704,109.7504944447428L345.7256788574159,121.12917652353644Z" fill="#f5b45c" stroke="#f5b45c"></path><path d="M267.16081970371306,-72.39653497003019L345.7256788574159,121.12917652353644L428.52818878367543,-74.62407365441322Z" fill="#e6985b" stroke="#e6985b"></path><path d="M267.16081970371306,-72.39653497003019L428.52818878367543,-74.62407365441322L575.7209807820618,-127.6804146822542Z" fill="#cd705f" stroke="#cd705f"></path><path d="M428.52818878367543,-74.62407365441322L345.7256788574159,121.12917652353644L549.2263231426477,85.33842480741441Z" fill="#f2bf7f" stroke="#f2bf7f"></path><path d="M428.52818878367543,-74.62407365441322L549.2263231426477,85.33842480741441L575.7209807820618,-127.6804146822542Z" fill="#d38b72" stroke="#d38b72"></path><path d="M575.7209807820618,-127.6804146822542L549.2263231426477,85.33842480741441L700.944623881951,-114.33935989625752Z" fill="#c68077" stroke="#c68077"></path><path d="M575.7209807820618,-127.6804146822542L700.944623881951,-114.33935989625752L785.3081083763391,-110.45587261207402Z" fill="#a75c6d" stroke="#a75c6d"></path><path d="M700.944623881951,-114.33935989625752L549.2263231426477,85.33842480741441L727.2205763217062,67.90490194223821Z" fill="#d09d84" stroke="#d09d84"></path><path d="M700.944623881951,-114.33935989625752L727.2205763217062,67.90490194223821L785.3081083763391,-110.45587261207402Z" fill="#b2686a" stroke="#b2686a"></path><path d="M785.3081083763391,-110.45587261207402L727.2205763217062,67.90490194223821L803.1989752035588,95.07874173112214Z" fill="#c08b7b" stroke="#c08b7b"></path><path d="M785.3081083763391,-110.45587261207402L803.1989752035588,95.07874173112214L963.252009563148,-60.216626739129424Z" fill="#a75e64" stroke="#a75e64"></path><path d="M785.3081083763391,-110.45587261207402L963.252009563148,-60.216626739129424L1131.8489889241755,-78.0035032890737Z" fill="#831f49" stroke="#831f49"></path><path d="M963.252009563148,-60.216626739129424L803.1989752035588,95.07874173112214L973.9005284104496,167.3354345653206Z" fill="#b68574" stroke="#b68574"></path><path d="M963.252009563148,-60.216626739129424L973.9005284104496,167.3354345653206L1022.0749826263636,131.21748827397823Z" fill="#ab7970" stroke="#ab7970"></path><path d="M963.252009563148,-60.216626739129424L1022.0749826263636,131.21748827397823L1088.8444887008518,28.709674710407853Z" fill="#99545a" stroke="#99545a"></path><path d="M963.252009563148,-60.216626739129424L1088.8444887008518,28.709674710407853L1131.8489889241755,-78.0035032890737Z" fill="#7e2142" stroke="#7e2142"></path><path d="M1131.8489889241755,-78.0035032890737L1088.8444887008518,28.709674710407853L1227.645707745105,-52.204783950001Z" fill="#702135" stroke="#702135"></path><path d="M1227.645707745105,-52.204783950001L1088.8444887008518,28.709674710407853L1288.1514156237245,20.371769880875945Z" fill="#703436" stroke="#703436"></path><path d="M-62.098148837685585,49.228603430092335L-128.0974202323705,327.94716727919877L-19.760146904736757,173.45426738262177Z" fill="#ce9f76" stroke="#ce9f76"></path><path d="M-62.098148837685585,49.228603430092335L-19.760146904736757,173.45426738262177L41.84117244556546,24.54855247400701Z" fill="#d78e2f" stroke="#d78e2f"></path><path d="M41.84117244556546,24.54855247400701L-19.760146904736757,173.45426738262177L86.69987582601607,276.02866617031395Z" fill="#dfb378" stroke="#dfb378"></path><path d="M41.84117244556546,24.54855247400701L86.69987582601607,276.02866617031395L266.9924745708704,109.7504944447428Z" fill="#eec077" stroke="#eec077"></path><path d="M266.9924745708704,109.7504944447428L86.69987582601607,276.02866617031395L276.56554106622934,250.97789405845106Z" fill="#f9d3a0" stroke="#f9d3a0"></path><path d="M266.9924745708704,109.7504944447428L276.56554106622934,250.97789405845106L366.98646635748446,199.53247647732496Z" fill="#fce1b5" stroke="#fce1b5"></path><path d="M266.9924745708704,109.7504944447428L366.98646635748446,199.53247647732496L345.7256788574159,121.12917652353644Z" fill="#fce2ae" stroke="#fce2ae"></path><path d="M345.7256788574159,121.12917652353644L366.98646635748446,199.53247647732496L520.1804570574313,217.44462305679917Z" fill="#fdf0d1" stroke="#fdf0d1"></path><path d="M345.7256788574159,121.12917652353644L520.1804570574313,217.44462305679917L549.2263231426477,85.33842480741441Z" fill="#f8ecca" stroke="#f8ecca"></path><path d="M549.2263231426477,85.33842480741441L520.1804570574313,217.44462305679917L725.6613279227167,265.9649099316448Z" fill="#ebeced" stroke="#ebeced"></path><path d="M549.2263231426477,85.33842480741441L725.6613279227167,265.9649099316448L727.2205763217062,67.90490194223821Z" fill="#e0dbd2" stroke="#e0dbd2"></path><path d="M727.2205763217062,67.90490194223821L725.6613279227167,265.9649099316448L803.1989752035588,95.07874173112214Z" fill="#d3cccd" stroke="#d3cccd"></path><path d="M803.1989752035588,95.07874173112214L725.6613279227167,265.9649099316448L837.5209010113031,204.85227523371577Z" fill="#cdc8d9" stroke="#cdc8d9"></path><path d="M803.1989752035588,95.07874173112214L837.5209010113031,204.85227523371577L973.9005284104496,167.3354345653206Z" fill="#bfb3c4" stroke="#bfb3c4"></path><path d="M1022.0749826263636,131.21748827397823L973.9005284104496,167.3354345653206L1141.4733634795994,261.5764647256583Z" fill="#a186b2" stroke="#a186b2"></path><path d="M1022.0749826263636,131.21748827397823L1141.4733634795994,261.5764647256583L1088.8444887008518,28.709674710407853Z" fill="#9a7c9b" stroke="#9a7c9b"></path><path d="M1088.8444887008518,28.709674710407853L1141.4733634795994,261.5764647256583L1237.0957471244037,260.019839303568Z" fill="#8e80a2" stroke="#8e80a2"></path><path d="M1088.8444887008518,28.709674710407853L1237.0957471244037,260.019839303568L1288.1514156237245,20.371769880875945Z" fill="#856d66" stroke="#856d66"></path><path d="M1288.1514156237245,20.371769880875945L1237.0957471244037,260.019839303568L1259.1560660395771,418.3057226333767Z" fill="#7b7a9a" stroke="#7b7a9a"></path><path d="M-19.760146904736757,173.45426738262177L-128.0974202323705,327.94716727919877L51.08131553046405,345.49166835844517Z" fill="#b78477" stroke="#b78477"></path><path d="M-19.760146904736757,173.45426738262177L51.08131553046405,345.49166835844517L86.69987582601607,276.02866617031395Z" fill="#cb9b82" stroke="#cb9b82"></path><path d="M86.69987582601607,276.02866617031395L51.08131553046405,345.49166835844517L172.03646541573107,352.451571598649Z" fill="#b67e7a" stroke="#b67e7a"></path><path d="M86.69987582601607,276.02866617031395L172.03646541573107,352.451571598649L276.56554106622934,250.97789405845106Z" fill="#d3a592" stroke="#d3a592"></path><path d="M276.56554106622934,250.97789405845106L172.03646541573107,352.451571598649L411.07342581264675,365.0297304801643Z" fill="#c99fa3" stroke="#c99fa3"></path><path d="M276.56554106622934,250.97789405845106L411.07342581264675,365.0297304801643L366.98646635748446,199.53247647732496Z" fill="#e6cdc6" stroke="#e6cdc6"></path><path d="M366.98646635748446,199.53247647732496L411.07342581264675,365.0297304801643L520.1804570574313,217.44462305679917Z" fill="#e9dada" stroke="#e9dada"></path><path d="M520.1804570574313,217.44462305679917L411.07342581264675,365.0297304801643L494.82421416789293,353.44115640968084Z" fill="#cbb8d4" stroke="#cbb8d4"></path><path d="M520.1804570574313,217.44462305679917L494.82421416789293,353.44115640968084L725.6613279227167,265.9649099316448Z" fill="#d2cdeb" stroke="#d2cdeb"></path><path d="M725.6613279227167,265.9649099316448L494.82421416789293,353.44115640968084L665.2120712399483,434.6403360553086Z" fill="#a590cd" stroke="#a590cd"></path><path d="M725.6613279227167,265.9649099316448L665.2120712399483,434.6403360553086L787.6026852149516,324.5547054335475Z" fill="#9b85c8" stroke="#9b85c8"></path><path d="M725.6613279227167,265.9649099316448L787.6026852149516,324.5547054335475L837.5209010113031,204.85227523371577Z" fill="#bab1dc" stroke="#bab1dc"></path><path d="M837.5209010113031,204.85227523371577L787.6026852149516,324.5547054335475L1029.646588275209,403.94938895478845Z" fill="#9179c2" stroke="#9179c2"></path><path d="M837.5209010113031,204.85227523371577L1029.646588275209,403.94938895478845L973.9005284104496,167.3354345653206Z" fill="#a08bc6" stroke="#a08bc6"></path><path d="M973.9005284104496,167.3354345653206L1029.646588275209,403.94938895478845L1141.4733634795994,261.5764647256583Z" fill="#8666b4" stroke="#8666b4"></path><path d="M1141.4733634795994,261.5764647256583L1029.646588275209,403.94938895478845L1181.579255964607,325.1863525528461Z" fill="#5e3a97" stroke="#5e3a97"></path><path d="M1141.4733634795994,261.5764647256583L1181.579255964607,325.1863525528461L1237.0957471244037,260.019839303568Z" fill="#6b5e9f" stroke="#6b5e9f"></path><path d="M1237.0957471244037,260.019839303568L1181.579255964607,325.1863525528461L1259.1560660395771,418.3057226333767Z" fill="#493785" stroke="#493785"></path><path d="M-128.0974202323705,327.94716727919877L-40.59521058574319,532.3677306063473L51.08131553046405,345.49166835844517Z" fill="#762543" stroke="#762543"></path><path d="M51.08131553046405,345.49166835844517L-40.59521058574319,532.3677306063473L66.32603514008224,535.6936379335821Z" fill="#5e3129" stroke="#5e3129"></path><path d="M51.08131553046405,345.49166835844517L66.32603514008224,535.6936379335821L172.03646541573107,352.451571598649Z" fill="#853e50" stroke="#853e50"></path><path d="M172.03646541573107,352.451571598649L66.32603514008224,535.6936379335821L279.0666193328798,524.5375302247703Z" fill="#754d3e" stroke="#754d3e"></path><path d="M172.03646541573107,352.451571598649L279.0666193328798,524.5375302247703L411.07342581264675,365.0297304801643Z" fill="#975f78" stroke="#975f78"></path><path d="M411.07342581264675,365.0297304801643L279.0666193328798,524.5375302247703L341.7115852609277,539.4838946778327Z" fill="#7e686b" stroke="#7e686b"></path><path d="M411.07342581264675,365.0297304801643L341.7115852609277,539.4838946778327L472.04945624805987,508.9293534681201Z" fill="#7e707f" stroke="#7e707f"></path><path d="M411.07342581264675,365.0297304801643L472.04945624805987,508.9293534681201L494.82421416789293,353.44115640968084Z" fill="#976fa3" stroke="#976fa3"></path><path d="M494.82421416789293,353.44115640968084L472.04945624805987,508.9293534681201L665.2120712399483,434.6403360553086Z" fill="#826ea3" stroke="#826ea3"></path><path d="M665.2120712399483,434.6403360553086L472.04945624805987,508.9293534681201L648.5314219538122,575.9357452858239Z" fill="#6c6d87" stroke="#6c6d87"></path><path d="M665.2120712399483,434.6403360553086L648.5314219538122,575.9357452858239L839.5214886311442,564.7088583000004Z" fill="#595672" stroke="#595672"></path><path d="M665.2120712399483,434.6403360553086L839.5214886311442,564.7088583000004L787.6026852149516,324.5547054335475Z" fill="#5e4d95" stroke="#5e4d95"></path><path d="M787.6026852149516,324.5547054335475L839.5214886311442,564.7088583000004L944.6658741496503,519.8294660076499Z" fill="#42377b" stroke="#42377b"></path><path d="M787.6026852149516,324.5547054335475L944.6658741496503,519.8294660076499L1029.646588275209,403.94938895478845Z" fill="#51278b" stroke="#51278b"></path><path d="M1029.646588275209,403.94938895478845L944.6658741496503,519.8294660076499L1085.4445378761739,488.4855738747865Z" fill="#260d62" stroke="#260d62"></path><path d="M1029.646588275209,403.94938895478845L1085.4445378761739,488.4855738747865L1181.579255964607,325.1863525528461Z" fill="#370076" stroke="#370076"></path><path d="M1181.579255964607,325.1863525528461L1085.4445378761739,488.4855738747865L1259.1560660395771,418.3057226333767Z" fill="#280068" stroke="#280068"></path><path d="M1259.1560660395771,418.3057226333767L1085.4445378761739,488.4855738747865L1244.0697070676833,510.98851919174194Z" fill="#070048" stroke="#070048"></path><path d="M-40.59521058574319,532.3677306063473L648.5314219538122,575.9357452858239L66.32603514008224,535.6936379335821Z" fill="#7a5628" stroke="#7a5628"></path><path d="M66.32603514008224,535.6936379335821L648.5314219538122,575.9357452858239L341.7115852609277,539.4838946778327Z" fill="#7e694e" stroke="#7e694e"></path><path d="M66.32603514008224,535.6936379335821L341.7115852609277,539.4838946778327L279.0666193328798,524.5375302247703Z" fill="#7a562e" stroke="#7a562e"></path><path d="M341.7115852609277,539.4838946778327L648.5314219538122,575.9357452858239L472.04945624805987,508.9293534681201Z" fill="#776f68" stroke="#776f68"></path><path d="M839.5214886311442,564.7088583000004L1244.0697070676833,510.98851919174194L944.6658741496503,519.8294660076499Z" fill="#271047" stroke="#271047"></path><path d="M944.6658741496503,519.8294660076499L1244.0697070676833,510.98851919174194L1085.4445378761739,488.4855738747865Z" fill="#190047" stroke="#190047"></path></g></svg>